<svg xmlns="http://www.w3.org/2000/svg" xmlns:svg="http://www.w3.org/2000/svg" xmlns:xlink="http://www.w3.org/1999/xlink" id="svg2" width="256" height="256" version="1.0"><title id="title2910">facebook web</title><defs id="defs4"><linearGradient id="linearGradient2555"><stop style="stop-color:#fff;stop-opacity:1" id="stop2557" offset="0"/><stop style="stop-color:#fff;stop-opacity:0" id="stop2559" offset="1"/></linearGradient><linearGradient id="linearGradient2449" x1="-344.153" x2="-395.849" y1="274.711" y2="425.4" gradientTransform="matrix(-0.5914584,0,0,0.5914584,210.02161,142.23241)" gradientUnits="userSpaceOnUse" xlink:href="#linearGradient2555"/></defs><metadata id="metadata7"/><g id="layer1" transform="translate(-373.642,-318.344)"><rect id="rect1942" width="236" height="236" x="-619.642" y="328.344" rx="35.488" ry="35.488" transform="scale(-1,1)" style="fill:#0037c1;fill-opacity:1;fill-rule:evenodd;stroke:none;stroke-width:.875;stroke-linecap:square;stroke-linejoin:miter;stroke-miterlimit:4;stroke-dasharray:.875,1.75;stroke-dashoffset:0;stroke-opacity:1"/><path id="path1950" d="M 557.29062,338.43314 L 445.99327,338.43314 C 416.53255,338.43314 392.81507,362.34527 392.81507,392.04777 L 392.81507,500.64007 C 393.76867,523.8254 397.43678,509.16812 404.41887,483.49194 C 412.53354,453.65102 438.96056,427.56963 471.144,408.02312 C 495.7086,393.10398 523.20395,383.5772 573.25282,382.6709 C 601.63697,382.15694 599.13112,345.83025 557.29062,338.43314 z" style="opacity:.30042916;fill:url(#linearGradient2449);fill-opacity:1;fill-rule:evenodd;stroke:none;stroke-width:.875;stroke-linecap:square;stroke-linejoin:miter;stroke-miterlimit:4;stroke-dasharray:.875,1.75;stroke-dashoffset:0;stroke-opacity:1"/><g id="Layer_3" transform="matrix(1.7982054,0,0,1.8129643,376.63343,326.35613)"><path id="path3336" d="M 93.376,117.012 L 72.203,117.012 L 72.203,65.767 L 61.625,65.767 L 61.625,48.107 L 72.203,48.107 L 72.203,37.504 C 72.203,23.097 78.176,14.53 95.146,14.53 L 109.274,14.53 L 109.274,32.192 L 100.443,32.192 C 93.837,32.192 93.4,34.66 93.4,39.266 L 93.376,48.105 L 109.374,48.105 L 107.502,65.765 L 93.376,65.765 L 93.376,117.012 z" style="fill:#fff"/></g></g></svg>