<svg xmlns="http://www.w3.org/2000/svg" xmlns:xlink="http://www.w3.org/1999/xlink" width="24" height="20" version="1.1" viewBox="0 0 24 20"><title>like copy</title><desc>Created with Sketch.</desc><defs><linearGradient id="linearGradient-1" x1="101.983%" x2="0%" y1="16.616%" y2="87.387%"><stop offset="0%" stop-color="#14E29A"/><stop offset="100%" stop-color="#58EED7"/></linearGradient></defs><g id="Web" fill="none" fill-rule="evenodd" stroke="none" stroke-width="1"><g id="Cards" fill="url(#linearGradient-1)" transform="translate(-786.000000, -600.000000)"><g id="Group-3-Copy" transform="translate(570.000000, 162.000000)"><g id="Buttons" transform="translate(0.000000, 423.000000)"><g id="Nope"><path id="like-copy" d="M236.985745,26.9872824 C236.995183,26.995676 237,27 237,27 L228,35 L219,27 C219,27 219.004864,26.9957062 219.014393,26.9873702 C217.202206,25.8338547 216,23.8073225 216,21.5 C216,17.9101491 218.910149,15 222.5,15 C224.815767,15 226.848684,16.2110222 228,18.0343141 C229.151316,16.2110222 231.184233,15 233.5,15 C237.089851,15 240,17.9101491 240,21.5 C240,23.807264 238.797855,25.8337519 236.985745,26.9872824 Z"/></g></g></g></g></g></svg>